<svg xmlns="http://www.w3.org/2000/svg" viewBox="0 0 256 256">
  <rect width="256" height="256" fill="#ffffff"/>
  <path d="M40 60 L100 60 L70 90 L70 180 L50 180 L50 90 L20 60 Z" fill="#10B981"/>
  <path d="M120 60 L200 180 L175 180 L160 155 L160 60 L140 60 L140 155 L125 180 L100 180 L180 60 Z" fill="#10B981"/>
  <rect x="210" y="40" width="6" height="6" fill="#10B981" opacity="0.6"/>
  <rect x="220" y="40" width="6" height="6" fill="#10B981" opacity="0.6"/>
  <rect x="230" y="40" width="6" height="6" fill="#10B981" opacity="0.6"/>
  <rect x="220" y="50" width="6" height="6" fill="#10B981" opacity="0.6"/>
  <rect x="210" y="210" width="6" height="6" fill="#10B981" opacity="0.6"/>
  <rect x="220" y="210" width="6" height="6" fill="#10B981" opacity="0.6"/>
  <rect x="230" y="210" width="6" height="6" fill="#10B981" opacity="0.6"/>
  <rect x="220" y="220" width="6" height="6" fill="#10B981" opacity="0.6"/>
  <rect x="40" y="210" width="6" height="6" fill="#10B981" opacity="0.6"/>
  <rect x="50" y="210" width="6" height="6" fill="#10B981" opacity="0.6"/>
  <rect x="50" y="220" width="6" height="6" fill="#10B981" opacity="0.6"/>
</svg>